<svg xmlns="http://www.w3.org/2000/svg" viewBox="0 0 32 32">
  <style>
    .bg { fill: #0c0c12; }
    .letter { fill: #e8e8ec; }
    .dot { fill: #3b82f6; }
    @media (prefers-color-scheme: light) {
      .bg { fill: #f0f0f4; }
      .letter { fill: #1a1a2e; }
      .dot { fill: #2563eb; }
    }
  </style>
  <rect class="bg" width="32" height="32" rx="6" />
  <g transform="translate(6.95, 23.08)">
    <path class="letter" d="M8.10-14.44L8.10-14.44Q9.46-14.44 10.32-14.06Q11.18-13.68 11.86-13.14L11.86-13.14Q12.10-12.96 12.26-12.96L12.26-12.96Q12.64-12.96 12.76-14.16L12.76-14.16L13.22-14.16Q13.18-13.38 13.16-12.27Q13.14-11.16 13.14-9.32L13.14-9.32L12.68-9.32Q12.54-10.52 12.25-11.41Q11.96-12.30 11.18-12.94L11.18-12.94Q10.70-13.40 9.99-13.66Q9.28-13.92 8.56-13.92L8.56-13.92Q7.46-13.92 6.68-13.35Q5.90-12.78 5.40-11.80Q4.90-10.82 4.66-9.59Q4.42-8.36 4.42-7.04L4.42-7.04Q4.42-3.44 5.41-1.78Q6.40-0.12 8.26-0.12L8.26-0.12Q8.74-0.12 9.10-0.24Q9.46-0.36 9.68-0.52L9.68-0.52Q9.96-0.72 10.06-0.95Q10.16-1.18 10.16-1.56L10.16-1.56L10.16-3.52Q10.16-4.44 10.01-4.89Q9.86-5.34 9.42-5.50Q8.98-5.66 8.14-5.68L8.14-5.68L8.14-6.08Q8.56-6.06 9.15-6.05Q9.74-6.04 10.38-6.03Q11.02-6.02 11.56-6.02L11.56-6.02Q12.40-6.02 13.10-6.04Q13.80-6.06 14.24-6.08L14.24-6.08L14.24-5.68Q13.86-5.66 13.67-5.54Q13.48-5.42 13.41-5.06Q13.34-4.70 13.34-3.96L13.34-3.96L13.34 0L12.94 0Q12.92-0.34 12.79-0.74Q12.66-1.14 12.36-1.14L12.36-1.14Q12.22-1.14 11.99-1.07Q11.76-1 11.28-0.72L11.28-0.72Q10.54-0.30 9.72-0.01Q8.90 0.28 8 0.28L8 0.28Q5.68 0.28 4.08-0.58Q2.48-1.44 1.67-3.05Q0.86-4.66 0.86-6.92L0.86-6.92Q0.86-9.20 1.79-10.88Q2.72-12.56 4.35-13.50Q5.98-14.44 8.10-14.44Z" />
  </g>
  <circle class="dot" cx="23" cy="23" r="2.2" />
</svg>
