<svg xmlns="http://www.w3.org/2000/svg" viewBox="0 0 32 32">
  <style>
    .bg { fill: #0c0c12; }
    .letter { fill: #e8e8ec; }
    .dot { fill: #3b82f6; }
    @media (prefers-color-scheme: light) {
      .bg { fill: #f0f0f4; }
      .letter { fill: #1a1a2e; }
      .dot { fill: #2563eb; }
    }
  </style>
  <rect class="bg" width="32" height="32" rx="6" />
  <path class="letter" d="M15.2 23.36Q13.56 23.36 12.21 22.88Q10.86 22.41 9.88 21.48Q8.91 20.55 8.38 19.2Q7.86 17.85 7.86 16.11Q7.86 14.38 8.37 13.0Q8.88 11.62 9.85 10.64Q10.82 9.67 12.24 9.15Q13.66 8.64 15.45 8.64Q16.15 8.64 16.87 8.75Q17.58 8.85 18.27 9.07Q18.95 9.28 19.56 9.61L19.65 12.91H18.0L17.25 9.54L18.73 9.85V10.97Q17.95 10.34 17.26 10.09Q16.56 9.84 15.87 9.84Q14.72 9.84 13.75 10.49Q12.78 11.14 12.2 12.5Q11.61 13.86 11.61 15.97Q11.61 18.08 12.18 19.45Q12.75 20.82 13.71 21.49Q14.67 22.16 15.83 22.16Q16.5 22.16 17.03 21.97Q17.56 21.78 18.24 21.41L16.63 22.77V21.16Q16.63 19.88 16.61 18.64Q16.6 17.4 16.56 16.11H20.06Q20.04 17.37 20.02 18.64Q20.0 19.91 20.0 21.24V22.12Q18.9 22.76 17.75 23.06Q16.6 23.36 15.2 23.36ZM14.68 17.24V16.11H21.14V17.24L18.65 17.58H17.27Z" />
  <circle class="dot" cx="23" cy="23" r="2.2" />
</svg>
